<svg xmlns="http://www.w3.org/2000/svg" viewBox="0 0 223.15 223.15"><defs><style>.cls-1,.cls-2{fill:#ffc400;}.cls-2{stroke:#fff;stroke-miterlimit:10;stroke-width:6px;}</style></defs><title>Asset 2</title><g id="Layer_2" data-name="Layer 2"><g id="objects"><polygon class="cls-1" points="203.75 111.57 144.3 120.36 191.4 157.69 135.52 135.52 157.69 191.4 120.36 144.3 111.57 203.75 102.78 144.3 65.45 191.4 87.62 135.52 31.75 157.69 78.85 120.36 19.39 111.57 78.85 102.78 31.75 65.45 87.62 87.62 65.46 31.75 102.78 78.85 111.57 19.39 120.36 78.85 157.69 31.75 135.52 87.62 191.4 65.46 144.3 102.78 203.75 111.57"/><polygon class="cls-1" points="222.73 142.18 148.12 133.04 192.52 193.69 132.5 148.41 140.68 223.15 111.31 153.96 80.97 222.73 90.11 148.12 29.46 192.52 74.74 132.5 0 140.68 69.19 111.31 0.41 80.97 75.03 90.11 30.62 29.46 90.64 74.74 82.47 0 111.84 69.19 142.18 0.41 133.04 75.03 193.69 30.62 148.41 90.64 223.15 82.47 153.96 111.84 222.73 142.18"/><circle class="cls-2" cx="111.57" cy="111.57" r="49.23" transform="translate(-46.22 111.57) rotate(-45)"/></g></g></svg>